<svg xmlns="http://www.w3.org/2000/svg" enable-background="new 0 0 3500 2000" viewBox="0 0 3500 2000"><path fill="#ffd19f" d="M1132.6,1070.1l230.8-37.7c5.3-0.9,8.8-6,7.7-11.2c-13-61.9-71.4-360.5,269.4-385.7   c181-13.4,235.3,197.2,185,315.7c-66.9,157.7-174.3,184.5-224.2,368.4c-24.6,90.6-26,172.9-18.7,239.3c6.5,58.7,85.4,72.6,111,19.4   c31.6-65.5,72.3-145,117.6-222.2c133.7-227.3,245.8-162.2,331.9-352.7c99-219.2-12.6-656-488.9-616.8   c-630.7,51.8-547.4,599.2-532.5,676C1122.8,1067.6,1127.5,1070.9,1132.6,1070.1z" class="colorffd19f svgShape"/><circle cx="1656.8" cy="1832.2" r="138.2" fill="#ffd19f" class="colorffd19f svgShape"/><path fill="#abbaf4" d="M1510.3,527.9c0.1-3,0.2-6,0.2-9c0-139.8-113.4-253.2-253.2-253.2c-105.3,0-195.5,64.3-233.7,155.7  C989,393.6,945.2,377,897.5,377c-111.4,0-201.7,90.1-201.9,201.4c-33.3-27.6-76-44.1-122.6-44.1c-106.3,0-211.7,187.2-211.7,293.4  c0,60.5,27.1,87.3,211.7,91.4c104.6,2.3,774.4-0.5,867,0c179.1,1,246-32,256-96.9C1716.3,689.9,1633.7,543.9,1510.3,527.9z" class="colorabbaf4 svgShape"/><path fill="#6fb8ef" d="M2669.7,1034.4c-5.8,0-11.6,0.3-17.3,0.8c-0.5-147.9-120.6-267.7-268.7-267.7c-118.6,0-219.1,76.8-254.8,183.4  c-36.5-22.8-79.7-36-125.9-36c-117.7,0-215.4,85.4-234.7,197.5c-33.2-30.8-77.7-49.7-126.6-49.7c-102.8,0-219.5,118.1-218.8,269.6  c0.3,51.5,10.5,102.5,218.8,102.5c83.3,0,935.8,0,1027.8,0c184,0,196-32.2,206-104.6C2892.4,1209,2811.9,1034.4,2669.7,1034.4z" class="color6fb8ef svgShape"/><path fill="#7b92db" d="M2230.9,728.8c-8-37.1-48-68.8-80-89.4c-0.4-0.3-1-0.1-1.3,0.3c-0.3,0.4-0.1,1,0.3,1.2  c31.3,20.4,71.1,52,78.7,88.4c9.3,42.2-30.2,69.3-71.5,82c-25.8,7.8-52.9,11.1-79.8,11.8c-85.4,2.1-194.7-21-310.7-81.4  c-124.6-64.7-293.3-179.7-437.5-215c-106.7-27.3-227.1-16-311.3,57c-24,20.5-42.9,44.8-56.8,70.2c-16.2-11.1-34.6-20.1-55.1-26.8  c-72.2-23.7-173.6-17.5-243.8,8.2c-104.4,37.7-198,126.5-251.3,205.5l0,0c-2.1,3.1-1.2,7.3,1.9,9.4c3.1,2.1,7.3,1.2,9.4-1.9l0.2-0.2  c53-79.4,145.1-165.2,244-201.5c67.3-24.9,166.5-31.7,236.3-9.1c19.9,6.4,37.8,15.1,53.6,26c-16.9,34.5-24.5,70.6-22.7,102.3  c5.5,91.9,106.3,76.5,105.4,9.2c0-14.6-4.9-28.7-10.8-41.1c-13.9-30.1-33.9-55.3-59.9-74.8c13.3-25.1,31.7-49,55-69.1  c82-71.8,200.3-82.9,304.5-56.7c143,34.3,312,148.1,437,212.5c117.3,60.5,227.3,83.1,312.8,80.6c27.2-0.9,54.4-4.2,80.6-12.3  c25.5-7.9,53.4-21.9,66.7-45C2231.9,757,2234,742.3,2230.9,728.8z M1019,738c5.7,12.5,9.8,22.9,10.1,36.8  c0.9,55.5-81.4,69.4-86.4-9.8c-1.8-29.9,5.2-63.9,20.8-96.6C987.2,686.6,1005.8,709.9,1019,738z" class="color7b92db svgShape"/><path fill="#4ca1d6" d="M2920.5,1120.3c-0.4-0.4-1.1-0.4-1.5,0l-0.1,0.1c-19.8,20.6-43.3,37.6-68,52.2c-71,41.4-154.4,58.3-248.9,43.9  c-124.7-18.5-231.1-81.9-328.7-103.3c-55.1-11.9-119.6-8.4-171.1,13.4c-42.4,17.9-75.7,48.1-91.8,87.7  c-63-21.7-131.6-26.3-199.1-15.8c-80.5,12.6-180,51.5-227.9,117.7c-35.5,49.2-48.2,115.8-21.1,168.1c5.7,11,13.2,21.2,22.1,29.9  c-8.3,5.7-15.3,12.8-20.3,21.7c-8.1,14.4-8.8,31-2.8,46.5c9.1,23.3,33.3,45.3,70.9,52.8l0,0c3.2,0.6,6.3-1.4,6.9-4.6  c0.6-3.2-1.4-6.3-4.6-6.9l0,0c-33.8-6.7-54.8-26-62.4-45.5c-4.8-12-4.4-25.7,2-36.8c4.5-8.1,11.1-14.5,19.1-19.5  c22.5,18,50.3,26.8,79,29.5c26.9,2.6,74.3,5.1,98.9-6.3c6.9-3.3,13.4-8.5,13.5-16.1c0.2-7.4-5.7-13-11.8-17.1  c-21.9-13.7-60.6-17.7-86.4-18.6c-29.8-1.1-66.1,1.5-92.9,15.4c-8.8-8-16.3-17.7-22.3-29.1c-25.8-49.3-12.9-112.2,19.8-158  c46.1-64.2,143.8-102.4,221.6-114.8c65.5-10.4,132.8-6.5,195.2,14.7c-4,11.6-6.6,24-7.6,37c-3.2,40.6,10,93.6,38.5,122.9  c53.9,56.3,139.3,11.3,119.2-53.1c-11.8-39.4-56.4-70.3-92.8-89.9c-15.9-8.6-32.3-15.9-49.1-22c15.6-38.4,47.8-67.4,88.3-84.7  c50.1-21.4,113.5-25.3,168-13.7c97.4,21.1,203.7,84.2,329.2,102.4c96.1,14.4,180.2-3.8,250.8-45.5c24.8-14.8,48.2-32,68.3-53  C2921,1121.4,2921,1120.7,2920.5,1120.3z M1686,1504.4c23.2,0.8,61.2,4.3,80.9,16.6c2.4,1.5,6.9,5,6.9,7.7c0,2.6-4.8,5.4-7.3,6.5  c-22.2,10.4-68.8,7.9-93.3,5.6c-26.2-2.4-50.5-10.1-70.1-24.3C1627.8,1505.4,1660.7,1503.5,1686,1504.4z M2061.6,1244.8  c34.4,18.4,78.4,48.2,89.6,85.4c18.1,57.7-58.8,97.5-107.9,46.6c-27.1-27.7-40-78.9-37.1-117.9c0.9-12.5,3.3-24.4,7.1-35.5  C2029.8,1229.3,2046,1236.4,2061.6,1244.8z" class="color4ca1d6 svgShape"/><path fill="#4a90f4" d="M2649.5 683c-44.1 0-81.3-18.6-107.7-53.8-27.3-36.4-41.1-88.6-41.1-154.9s13.8-118.5 41.1-154.9c26.3-35.2 63.6-53.8 107.7-53.8 44.1 0 81.3 18.6 107.7 53.8 27.3 36.4 41.1 88.6 41.1 154.9C2798.3 662.6 2694.3 683 2649.5 683zM2649.5 318.2c-61.1 0-96.2 56.9-96.2 156.1s35.1 156.1 96.2 156.1c79.5 0 96.2-84.9 96.2-156.1C2745.7 375.1 2710.6 318.2 2649.5 318.2zM2390.2 683h-37.6c-4.2 0-7.5-3.4-7.5-7.5v-97.5h-179.9c-22 0-34.3-25.4-20.6-42.7l206.2-259.7c15.5-19.5 46.9-8.6 46.9 16.4v233.4h53.5c4.2 0 7.5 3.4 7.5 7.5v37.6c0 4.2-3.4 7.5-7.5 7.5h-53.5v97.5C2397.7 679.6 2394.3 683 2390.2 683zM2219.6 525.3h125.4v-158L2219.6 525.3zM3070.4 683h-37.6c-4.2 0-7.5-3.4-7.5-7.5v-97.5h-179.9c-22 0-34.3-25.4-20.6-42.7L3031 275.5c15.5-19.5 46.9-8.6 46.9 16.4v233.4h53.5c4.2 0 7.5 3.4 7.5 7.5v37.6c0 4.2-3.4 7.5-7.5 7.5h-53.5v97.5C3077.9 679.6 3074.5 683 3070.4 683zM2899.8 525.3h125.4v-158L2899.8 525.3z" class="color4a90f4 svgShape"/><path fill="#ffc6bd" d="M1190.7 1720l-32.3-26.2c-2.6-2.1-2.8-5.9-.5-8.3l178.6-187.4c4.8-5 12.7 1.4 8.8 7.1l-146.2 213.6C1197.1 1721.5 1193.3 1722 1190.7 1720zM862.6 1750.9l-41.5-58.2c-3.3-4.6-1.9-11.1 2.9-14l405.3-242.4c7.9-4.7 15.8 6.2 8.7 12.2l-361.2 304.2C872.4 1756.3 865.9 1755.5 862.6 1750.9zM929.7 1436.5l-14.3-42.9c-1.1-3.4.9-7 4.4-7.9l273.3-67c7.3-1.8 10.8 8.7 3.9 11.6l-259 109.9C934.7 1441.6 930.9 1439.9 929.7 1436.5zM1981 1800.1l31.5-16.5c2.5-1.3 3.4-4.5 1.8-6.8l-117.8-187.1c-3.2-5-10.8-1-8.5 4.5l86.4 203.6C1975.4 1800.3 1978.5 1801.4 1981 1800.1zM2220.3 1831.3l39.7-34.4c3.2-2.7 3.3-7.6.3-10.5l-233.1-229.3c-6.3-6.2-16 2.2-10.8 9.3l193.3 263.7C2212.4 1833.5 2217.2 1834.1 2220.3 1831.3zM1625.8 127.3l34.1-2.4c2.7-.2 5 2 5 4.7l-2.2 212.6c-.1 5.7-8.4 6.3-9.2.6l-31.9-210.2C1621.1 130 1623.1 127.5 1625.8 127.3zM1910.5 29.2l48 12.5c3.8 1 6 5 4.7 8.7l-101.8 291.7c-2.7 7.8-14.5 4.8-13-3.4l53.8-304.3C1902.9 30.7 1906.7 28.2 1910.5 29.2zM2098.4 283.1l24.9 14.1c2 1.1 2.6 3.7 1.3 5.6l-99.7 147.7c-2.7 4-8.8.5-6.8-3.8l74.8-161.7C2093.9 282.8 2096.4 282 2098.4 283.1zM767.7 1313.8l-10.2-55.9c-.8-4.4 2.3-8.6 6.8-9.1l354.3-35.6c9.2-.9 11.6 12.4 2.7 14.7l-344 91.9C772.9 1321 768.5 1318.2 767.7 1313.8zM2256.7 1579.2l12.8-17.2c1-1.4.7-3.3-.8-4.2l-113.2-70.8c-3-1.9-6.2 2.3-3.5 4.7l100.4 88.1C2253.7 1580.8 2255.6 1580.6 2256.7 1579.2zM929.8 1067l-1.6 21.4c-.1 1.7 1.2 3.1 2.9 3.1l133.5-.6c3.6 0 4-5.2.4-5.8l-131.9-20.8C931.5 1064.1 929.9 1065.4 929.8 1067z" class="colorffc6bd svgShape"/></svg>